PathFileType	4	(X/Y/Z)	..\data\2015007\dynamic\2015007_C5_03.trc
DataRate	CameraRate	NumFrames	NumMarkers	Units	OrigDataRate	OrigDataStartFrame	OrigNumFrames
100.000000	100.000000	4	52	mm	100.000000	34	139
Frame#	Time	L_IAS			L_IPS			R_IPS			R_IAS			L_FTC			L_FLE			L_FME			L_FAX			L_TTC			L_FAL			L_TAM			L_FCC			L_FM1			L_FM2			L_FM5			R_FTC			R_FLE			R_FME			R_FAX			R_TTC			R_FAL			R_TAM			R_FCC			R_FM1			R_FM2			R_FM5			CV7			TV10			SXS			SJN			L_SIA			L_SRS			L_SAA			L_SAE			L_HLE			L_HME			L_UOA			L_RSP			L_UHE			L_HM2			L_HM5			R_SIA			R_SRS			R_SAA			R_SAE			R_HLE			R_HME			R_UOA			R_RSP			R_UHE			R_HM2			R_HM5			
		X1	Y1	Z1	X2	Y2	Z2	X3	Y3	Z3	X4	Y4	Z4	X5	Y5	Z5	X6	Y6	Z6	X7	Y7	Z7	X8	Y8	Z8	X9	Y9	Z9	X10	Y10	Z10	X11	Y11	Z11	X12	Y12	Z12	X13	Y13	Z13	X14	Y14	Z14	X15	Y15	Z15	X16	Y16	Z16	X17	Y17	Z17	X18	Y18	Z18	X19	Y19	Z19	X20	Y20	Z20	X21	Y21	Z21	X22	Y22	Z22	X23	Y23	Z23	X24	Y24	Z24	X25	Y25	Z25	X26	Y26	Z26	X27	Y27	Z27	X28	Y28	Z28	X29	Y29	Z29	X30	Y30	Z30	X31	Y31	Z31	X32	Y32	Z32	X33	Y33	Z33	X34	Y34	Z34	X35	Y35	Z35	X36	Y36	Z36	X37	Y37	Z37	X38	Y38	Z38	X39	Y39	Z39	X40	Y40	Z40	X41	Y41	Z41	X42	Y42	Z42	X43	Y43	Z43	X44	Y44	Z44	X45	Y45	Z45	X46	Y46	Z46	X47	Y47	Z47	X48	Y48	Z48	X49	Y49	Z49	X50	Y50	Z50	X51	Y51	Z51	X52	Y52	Z52	

35	0.34	309.9079589843751	915.017517089844	-349.0970764160157	97.18289947509768	922.092468261719	-271.8976135253907	103.2661514282227	932.982604980469	-166.6458587646485	317.8889465332032	914.2302856445315	-99.96140289306643	238.4817810058594	803.3892211914065	-405.717742919922	411.2433471679689	471.906463623047	-358.6141662597657	421.7997436523439	453.6233825683595	-237.1168518066407	399.620574951172	415.2214965820314	-367.5890197753907	452.6785278320314	403.148162841797	-318.0477600097657	357.7810974121094	92.60451507568361	-346.3808288574219	386.2714843750001	92.99279785156251	-267.5151367187501	318.6565856933594	41.48184967041016	-292.2454223632813	486.3100891113282	38.93122482299805	-293.7790832519532	482.4114685058595	52.15169906616212	-338.6870727539063	434.8847961425782	33.03051757812501	-376.9396667480469	217.0699462890626	815.4385986328127	-37.73366165161134	186.1346740722657	442.2501220703126	-104.5440673828125	168.9805145263672	429.8577880859376	-233.067855834961	165.5661010742188	388.2176513671876	-100.5539169311524	211.5493927001954	374.6001281738282	-149.5906829833985	102.5149917602539	66.86374664306642	-142.8416900634766	128.214828491211	80.16464996337892	-224.9339447021485	55.5201873779297	21.91501998901368	-193.2150573730469	234.6108093261719	19.09125709533692	-206.8087310791016	231.6241912841797	31.76252937316895	-161.3495788574219	178.3428192138672	12.96567249298096	-110.2406005859375	219.4077148437501	1413.696044921875	-213.6851654052735	110.2802658081055	1178.71826171875	-225.2775115966797	370.6987609863282	1088.967651367188	-237.6478576660157	327.6589965820313	1329.702270507813	-226.2004394531251	107.8019027709961	1226.349243164063	-310.0139770507813	157.0774230957032	1351.182250976563	-319.2625732421876	196.6142883300782	1353.146728515625	-382.0200805664063	242.9596405029297	1363.151733398438	-399.1373291015626	152.3134918212891	1071.183471679688	-477.951629638672	129.940902709961	1067.574951171875	-402.7946166992189	118.8367919921875	1055.711669921875	-451.6048889160157	182.9628601074219	830.494079589844	-468.7918395996095	119.0794296264649	847.7952270507815	-511.1008911132814	187.2323760986328	763.5427856445314	-479.6404113769532	101.4519424438477	787.9873657226565	-513.8582763671876	111.0793991088867	1220.347045898438	-143.4210205078125	158.253646850586	1342.788208007813	-141.8809509277344	213.8586120605469	1345.178955078125	-71.42102050781251	260.6665954589844	1348.314819335938	-57.76407623291017	267.6096191406251	1025.455688476563	28.21728897094727	230.7941131591797	1006.687255859375	-33.50162887573243	248.6855010986329	985.7066650390627	10.7882137298584	431.4832458496095	867.213806152344	-12.89298820495606	392.8515625000001	842.547058105469	29.11760520935059	492.7048645019532	812.5106201171877	-12.1965970993042	427.7999267578126	784.794128417969	34.01015853881837	
36	0.35	325.5910949707032	911.8371582031252	-348.8558349609376	112.471435546875	919.0522460937502	-272.1485290527344	118.1553573608399	929.943786621094	-166.7215270996094	333.0505371093751	910.6838378906252	-99.79946899414065	254.6508483886719	801.123474121094	-406.0892639160157	429.5438537597657	471.1310424804689	-358.8044128417969	437.2610168457032	452.0531005859376	-237.2137298583985	420.9045715332032	413.5273742675782	-368.3165893554688	473.6496582031251	404.5977172851564	-317.5871887207032	401.5668334960939	88.91640472412111	-347.3587036132813	429.2223510742189	91.41048431396486	-268.1168518066407	365.4193725585938	35.39564514160157	-293.6201782226563	532.6968383789064	44.65201950073243	-292.5199279785157	528.7155151367189	57.38338088989259	-337.5935363769532	483.3370361328126	34.98188781738282	-376.5482788085938	231.4102935791016	813.399841308594	-37.45951461791993	191.7647857666016	441.7207641601564	-104.9759216308594	174.3884735107422	429.9468994140626	-233.6255187988282	170.3023986816407	388.107391357422	-101.0962448120117	216.0872039794922	373.6680603027344	-150.0832214355469	103.0687637329102	67.5336151123047	-144.0282745361328	129.3790588378907	80.45623016357423	-226.0989685058594	55.97678375244142	22.77295303344727	-194.6780395507813	235.1428833007813	19.04595756530762	-206.9960632324219	231.8905029296876	31.76076126098634	-161.4739379882813	178.1515655517578	13.3792896270752	-110.827880859375	234.8458251953126	1411.25390625	-213.9141540527344	125.5158767700196	1176.248779296875	-224.7630920410157	386.943572998047	1085.042846679688	-237.9041137695313	343.0913085937501	1327.160766601563	-226.6634826660157	123.0011444091797	1223.809936523438	-309.6607360839844	172.1823425292969	1348.606079101563	-319.1362915039063	211.5000000000001	1350.467651367188	-382.0992431640626	257.8414001464844	1360.263427734375	-399.4291992187501	164.0250549316407	1069.3671875	-477.1329650878907	142.5275421142578	1065.727172851563	-401.6656494140626	130.6980285644532	1054.36865234375	-450.3549194335939	190.6873626708985	828.1899414062502	-469.2799072265626	126.7251510620117	846.8516235351565	-510.8471984863282	193.6272735595704	761.1997070312501	-480.6198730468751	108.0065307617188	787.554382324219	-513.7971191406251	126.7779922485352	1218.115966796875	-142.8367919921875	173.9253540039063	1340.607177734375	-141.6192474365235	230.1713409423829	1342.938110351563	-71.27822875976564	277.1996154785157	1345.95361328125	-58.00048446655275	285.6269836425782	1023.670043945313	28.78162956237794	248.6092834472657	1003.979431152344	-32.40614318847657	267.3165588378907	983.3562622070315	11.51302242279053	452.6843261718751	869.4084472656252	-15.48634433746338	415.3123779296876	843.5830688476565	27.02670669555665	515.2264404296876	816.1721801757815	-15.96061038970948	451.9207153320314	786.5496826171877	30.94992065429688	
37	0.36	341.4078063964844	908.2819824218752	-348.6862182617188	127.7741851806641	915.6953735351565	-272.4314270019532	133.1082916259766	926.551696777344	-166.8661651611328	348.2689819335938	906.9494628906252	-99.56504058837893	270.8573608398438	798.602722167969	-406.5379333496095	447.1300659179689	469.8045043945314	-359.1701660156251	451.8899230957032	449.6842651367189	-237.5035705566407	441.3174133300782	411.5494689941407	-369.1419067382813	493.7463378906251	405.5997314453126	-317.3080139160157	444.0428466796876	86.28372955322267	-348.0429382324219	470.7928771972657	90.84917449951173	-268.4885253906251	410.9176635742189	30.62057876586915	-294.5442504882813	577.2290649414064	51.21958541870119	-291.0487060546876	573.1668701171876	63.37727737426759	-336.2875671386719	530.0065917968751	37.84454727172852	-375.8425903320313	245.8022155761719	811.2280273437502	-37.23019027709962	197.8748779296876	441.1974487304689	-105.492431640625	180.4589996337891	430.082977294922	-234.2870178222657	175.4857940673828	388.0505676269532	-101.7306518554688	221.099105834961	372.7462158203126	-150.6153564453125	103.6396789550782	68.39308166503908	-145.2070922851563	130.5927734375	80.9048309326172	-227.2719116210938	56.36714553833009	23.80562400817871	-196.1523742675782	235.7636108398438	19.07464790344239	-207.1380767822266	232.1738433837891	31.82945823669434	-161.5777587890625	177.98095703125	13.82002449035645	-111.4534225463867	250.2733306884766	1408.598266601563	-214.1944885253907	140.7703399658203	1173.587646484375	-224.3917388916016	403.2421264648439	1080.563354492188	-238.1138153076172	358.5376281738282	1324.369018554688	-227.1428680419922	138.2953491210938	1221.065795898438	-309.4637451171876	187.3313903808594	1345.835571289063	-319.1156616210938	226.4342193603516	1347.625732421875	-382.2828979492188	272.8607177734376	1357.167846679688	-399.760955810547	175.96142578125	1067.302124023438	-476.374725341797	155.3690795898438	1063.561279296875	-400.598602294922	142.8770446777344	1052.713500976563	-449.1761779785157	198.8825683593751	825.7047119140627	-469.7879333496095	134.8429260253907	845.6910400390627	-510.6482849121095	200.5209045410157	758.7172241210939	-481.6281738281251	115.0963211059571	786.9162597656252	-513.8120727539064	142.4202880859375	1215.684204101563	-142.3753814697266	189.6065979003907	1338.19921875	-141.4184875488282	246.4638214111329	1340.476440429688	-71.17449951171876	293.7483215332032	1343.328002929688	-58.27828216552736	303.7331848144532	1021.626831054688	29.20339393615723	266.5401306152344	1001.020446777344	-31.50498390197755	285.9132080078126	980.8347778320315	12.09320831298828	473.553192138672	871.127136230469	-17.99538612365723	437.4315185546876	844.3264160156252	25.03407859802247	537.2762451171876	819.2729492187502	-19.53183364868164	475.5425109863282	787.9793090820315	28.06924438476563	
38	0.37	357.3499755859376	904.5097656250002	-348.6156005859376	143.1095733642578	912.1433715820315	-272.7669982910157	148.1555633544922	922.923034667969	-167.1178894042969	363.5505065917969	903.165710449219	-99.27095794677737	287.0944519042969	795.9089355468752	-407.0548400878907	464.1114501953126	468.016571044922	-359.6561889648438	465.879852294922	446.6751708984376	-237.9226531982422	460.8961181640626	409.3518676757814	-369.9995727539063	513.0459594726564	406.1732482910157	-317.1708068847657	484.690887451172	84.57681274414064	-348.4226684570313	510.5151367187501	91.13088989257814	-268.6300964355469	454.5543212890626	27.03364372253419	-295.0026855468751	619.4873657226564	58.27140426635744	-289.4745788574219	615.3193359375001	69.79804992675783	-334.8681335449219	574.3434448242189	41.32992172241212	-374.8933105468751	260.2461853027344	808.9952392578127	-37.08975982666016	204.5047149658204	440.6928710937501	-106.0842742919922	187.2470397949219	430.2467651367189	-235.0428161621094	181.1585540771485	388.0507202148439	-102.4449234008789	226.6258697509766	371.8367309570313	-151.1822814941407	104.2287902832032	69.46352386474611	-146.3306274414063	131.8326263427735	81.54119110107423	-228.4137878417969	56.65821075439455	25.06110572814942	-197.5670166015626	236.4588623046876	19.15659332275391	-207.229721069336	232.4763641357422	31.95762252807618	-161.6542510986328	177.8382263183594	14.2507381439209	-112.0920715332032	265.6934204101563	1405.791259765625	-214.5339660644532	156.056640625	1170.78955078125	-224.1664123535157	419.541961669922	1075.728637695313	-238.2840270996094	374.0015563964844	1321.40478515625	-227.6494293212891	153.6673126220703	1218.172241210938	-309.4129943847657	202.5228271484376	1342.930419921875	-319.2018737792969	241.4130096435547	1344.6806640625	-382.5690002441407	287.9995727539063	1353.939819335938	-400.1392517089845	188.1337890625	1065.046752929688	-475.6927490234376	168.4744567871094	1061.148803710938	-399.6189270019532	155.392578125	1050.802734375	-448.0971069335939	207.5748748779297	823.0913696289065	-470.3022460937501	143.4808807373047	844.3587036132815	-510.5167846679689	207.9424743652344	756.1349487304689	-482.622283935547	122.7618713378907	786.1060791015627	-513.8986206054689	158.0132751464844	1213.104736328125	-142.0476531982422	205.3020629882813	1335.6181640625	-141.2956695556641	262.7178039550782	1337.85791015625	-71.13288879394533	310.2780151367188	1340.518188476563	-58.60924530029298	321.9126586914063	1019.375549316406	29.46666717529298	284.5866699218751	997.888366699219	-30.83533096313477	304.4462280273438	978.2001953125002	12.5084867477417	494.0762634277345	872.3758544921877	-20.39857482910157	459.1706848144532	844.7822265625002	23.15179824829102	558.8416137695314	821.8037109375002	-22.88134384155274	498.6158447265626	789.072448730469	25.39067649841309	
